<?xml version="1.0" standalone="no"?>
<!DOCTYPE svg PUBLIC "-//W3C//DTD SVG 20010904//EN"
 "http://www.w3.org/TR/2001/REC-SVG-20010904/DTD/svg10.dtd">
<svg version="1.0" xmlns="http://www.w3.org/2000/svg"
 width="2705.000000pt" height="2705.000000pt" viewBox="0 0 2705.000000 2705.000000"
 preserveAspectRatio="xMidYMid meet">
<metadata>
Created by potrace 1.11, written by Peter Selinger 2001-2013
</metadata>
<g transform="translate(0.000000,2705.000000) scale(0.100000,-0.100000)"
fill="#000000" stroke="none">
<path d="M13108 26885 c-2 -1 -88 -6 -193 -9 -104 -4 -208 -9 -230 -11 -22 -2
-78 -6 -125 -10 -47 -3 -98 -7 -115 -9 -16 -2 -64 -7 -105 -11 -41 -3 -86 -8
-100 -10 -14 -2 -43 -6 -65 -9 -22 -3 -65 -8 -95 -11 -74 -8 -210 -29 -385
-60 -16 -3 -69 -12 -117 -20 -48 -9 -158 -31 -245 -51 -87 -19 -169 -37 -183
-40 -121 -23 -532 -141 -735 -211 -71 -25 -134 -46 -140 -47 -5 -2 -21 -7 -35
-13 -14 -5 -77 -29 -140 -53 -214 -79 -692 -288 -985 -431 -1026 -497 -2056
-1367 -2891 -2444 -127 -164 -444 -614 -444 -631 0 -3 -19 -33 -42 -68 -53
-77 -42 -59 -189 -311 -158 -271 -149 -254 -276 -505 -204 -399 -405 -850
-576 -1290 -72 -186 -130 -339 -133 -350 0 -3 -4 -12 -7 -20 -13 -29 -108
-325 -113 -349 -3 -14 -7 -28 -10 -32 -11 -19 -128 -435 -139 -498 -3 -14 -9
-42 -15 -61 -17 -56 -97 -429 -116 -535 -3 -16 -16 -91 -29 -165 -30 -170 -59
-378 -80 -565 -3 -27 -8 -88 -11 -135 -3 -47 -7 -107 -9 -135 -14 -184 -16
-1452 -17 -9060 -1 -7825 0 -8513 15 -8541 33 -63 -129 -59 2316 -56 2124 2
2236 3 2265 20 17 10 39 33 51 52 l20 35 1 8730 c1 4802 4 8757 7 8790 4 33 9
94 12 135 3 41 7 91 10 110 14 117 18 147 20 161 2 9 6 40 10 70 4 30 13 86
21 124 9 39 17 81 19 95 2 14 8 45 14 70 5 25 13 60 16 79 3 19 8 37 10 41 2
3 6 17 9 31 23 112 109 380 178 554 42 106 47 117 99 235 43 97 206 417 219
430 8 8 29 43 37 60 18 42 223 344 300 445 126 162 220 271 353 410 123 128
246 244 416 392 12 10 36 29 54 43 18 14 38 30 44 35 6 6 33 26 59 45 26 19
64 48 85 64 57 44 258 177 352 233 569 338 1209 571 1755 638 28 4 57 8 65 10
8 2 49 7 90 11 41 3 78 8 81 10 30 17 689 26 874 11 828 -66 1607 -334 2305
-792 41 -27 80 -53 85 -57 6 -5 69 -52 142 -106 382 -284 730 -636 1014 -1027
436 -600 722 -1258 849 -1955 24 -132 45 -279 65 -455 23 -209 23 -708 0 -900
-3 -22 -7 -59 -10 -83 -3 -23 -8 -63 -11 -90 -8 -68 -33 -216 -50 -297 -9 -38
-17 -80 -20 -92 -2 -13 -16 -69 -29 -125 -14 -57 -27 -111 -30 -120 -30 -125
-116 -389 -177 -543 -124 -312 -338 -709 -517 -958 -77 -107 -155 -212 -161
-217 -3 -3 -21 -25 -40 -50 -139 -180 -425 -475 -635 -655 -491 -421 -1020
-722 -1619 -920 -225 -74 -565 -158 -776 -190 -25 -4 -54 -9 -65 -11 -24 -5
-157 -21 -235 -29 -30 -3 -77 -8 -105 -10 -107 -11 -417 -13 -446 -3 -17 6
-38 22 -47 36 -16 24 -17 154 -17 1893 l0 1868 21 28 c31 42 65 54 171 58 317
14 557 142 747 400 141 190 200 374 192 595 -10 252 -116 480 -316 680 -68 68
-89 85 -165 131 -133 80 -282 121 -445 123 -100 1 -200 -7 -231 -18 -8 -3 -25
-7 -39 -10 -91 -15 -274 -97 -354 -158 -221 -169 -342 -390 -382 -698 -2 -14
-4 -2127 -5 -4695 -2 -4497 -1 -4672 16 -4709 29 -60 53 -66 305 -81 58 -4
121 -8 140 -10 276 -26 787 -22 1205 10 140 11 201 16 275 25 41 5 98 12 125
15 28 3 95 13 150 21 55 8 118 17 140 20 22 3 72 12 110 20 39 8 86 17 105 20
19 3 51 9 70 14 19 5 51 12 70 15 19 3 55 11 80 16 61 14 72 16 114 23 19 3
57 11 83 17 27 6 55 12 63 14 26 5 95 18 100 20 3 1 21 4 40 9 279 59 505 125
791 232 179 66 453 176 463 185 6 5 16 9 23 9 7 0 36 11 65 24 29 14 132 58
228 100 368 157 441 190 625 281 217 108 290 147 465 253 371 224 713 471
1145 826 61 50 112 93 115 96 3 3 25 23 50 44 278 242 582 541 815 801 44 50
82 92 85 95 66 64 439 536 575 727 114 160 425 635 425 648 0 2 22 39 48 82
44 71 99 168 207 368 107 197 255 508 345 725 28 69 62 150 76 181 13 31 24
60 24 64 0 4 6 21 14 38 70 161 225 657 292 932 13 55 28 116 33 135 9 30 18
67 26 105 11 48 48 219 55 255 5 25 12 56 15 70 3 14 8 39 11 55 3 17 9 48 14
70 5 22 11 58 14 80 4 22 13 76 21 120 8 44 17 100 20 125 3 25 8 56 10 70 9
48 18 109 30 208 2 20 7 55 9 77 3 22 8 69 11 105 3 36 8 76 10 90 2 14 6 63
10 110 3 47 8 103 10 125 27 282 27 1094 1 1360 -2 17 -6 71 -10 122 -4 50 -9
101 -11 113 -2 12 -7 49 -10 83 -3 34 -8 78 -10 97 -2 19 -7 58 -10 85 -3 28
-8 61 -10 75 -3 14 -7 39 -9 55 -8 57 -18 120 -22 140 -3 11 -6 34 -8 50 -3
17 -12 71 -21 120 -10 50 -19 101 -21 115 -3 14 -14 68 -25 120 -11 52 -23
106 -25 119 -26 131 -162 627 -235 851 -57 174 -155 457 -179 515 -4 11 -36
92 -71 180 -34 88 -72 183 -85 210 -12 28 -37 84 -54 125 -48 111 -84 188
-170 360 -70 142 -94 187 -168 320 -14 25 -39 70 -55 100 -113 205 -469 754
-574 885 -4 6 -55 73 -113 150 -57 77 -107 142 -110 145 -3 3 -21 25 -40 50
-19 25 -42 54 -52 65 -239 289 -376 441 -633 699 -151 152 -331 322 -420 397
-22 19 -49 43 -61 54 -11 11 -43 38 -70 60 -27 22 -64 54 -84 71 -249 218
-946 711 -1266 895 -268 155 -487 266 -714 364 -85 37 -173 75 -195 85 -219
97 -889 350 -1170 441 -263 86 -667 189 -875 224 -19 3 -42 8 -50 10 -8 2 -35
7 -60 10 -25 3 -52 8 -60 10 -8 2 -39 7 -69 10 -30 4 -63 9 -75 11 -12 2 -41
6 -66 9 -42 4 -65 7 -157 20 -21 3 -63 8 -93 11 -30 2 -71 6 -90 9 -19 2 -66
7 -105 10 -38 3 -86 8 -105 10 -19 3 -75 7 -125 11 -49 3 -106 7 -125 9 -47 5
-181 14 -310 21 -105 6 -737 13 -742 9z"/>
</g>
</svg>
